<?xml version="1.0" encoding="UTF-8" standalone="no"?>
<!-- Created with Inkscape (http://www.inkscape.org/) -->

<svg
   version="1.1"
   id="svg2"
   width="512"
   height="512"
   viewBox="0 0 512 512"
   sodipodi:docname="mable_yellow.svg"
   inkscape:version="1.1.2 (0a00cf5339, 2022-02-04)"
   xmlns:inkscape="http://www.inkscape.org/namespaces/inkscape"
   xmlns:sodipodi="http://sodipodi.sourceforge.net/DTD/sodipodi-0.dtd"
   xmlns="http://www.w3.org/2000/svg"
   xmlns:svg="http://www.w3.org/2000/svg">
  <defs
     id="defs6" />
  <sodipodi:namedview
     id="namedview4"
     pagecolor="#ffffff"
     bordercolor="#666666"
     borderopacity="1.0"
     inkscape:pageshadow="2"
     inkscape:pageopacity="0.0"
     inkscape:pagecheckerboard="0"
     showgrid="false"
     inkscape:zoom="1.4042969"
     inkscape:cx="236.41725"
     inkscape:cy="362.45897"
     inkscape:window-width="2560"
     inkscape:window-height="1403"
     inkscape:window-x="0"
     inkscape:window-y="0"
     inkscape:window-maximized="1"
     inkscape:current-layer="g8" />
  <g
     inkscape:groupmode="layer"
     inkscape:label="Image"
     id="g8">
    <g
       id="g1714"
       transform="matrix(2.0588317,0,0,2.6316727,-1217.2082,-276.17078)">
      <path
         style="fill:#ffcc00;fill-opacity:1;stroke-width:1.03352"
         d="m 643.7643,285.53648 c -6.86585,-0.68848 -16.58735,-4.5536 -15.56993,-6.19039 0.36012,-0.57934 0.0226,-0.80441 -0.75886,-0.50621 -1.41257,0.53895 -4.07132,-1.99504 -9.36124,-8.92198 -5.16964,-6.76944 -12.05392,-25.88113 -12.76492,-35.43713 -0.21085,-2.83402 -0.81004,-7.47152 -1.33151,-10.30554 -1.37047,-7.44809 -1.08653,-37.33188 0.43278,-45.54738 2.15662,-11.66176 4.9013,-21.0912 6.29377,-21.62248 0.72374,-0.27615 1.08532,-1.09952 0.8035,-1.82974 -0.28184,-0.73021 0.13075,-1.96713 0.91685,-2.74874 0.78608,-0.78159 1.51079,-1.88481 1.61043,-2.45162 0.35372,-2.01208 5.91122,-8.71138 7.24652,-8.73536 0.74624,-0.0134 1.12104,-0.40363 0.83289,-0.8672 -0.28815,-0.46355 0.47349,-1.50699 1.69253,-2.31875 1.21903,-0.81174 3.26467,-2.47015 4.54589,-3.68535 1.28121,-1.21519 2.57997,-1.96038 2.88614,-1.65597 0.30616,0.30441 0.84973,-0.20587 1.20792,-1.13394 0.35819,-0.92808 1.07238,-1.42863 1.58709,-1.11235 0.51471,0.31629 1.62369,-0.10885 2.4644,-0.94473 0.8904,-0.88531 2.46927,-1.2752 3.78186,-0.93393 1.535,0.39912 2.01926,0.20938 1.51914,-0.5952 -0.47596,-0.76572 -0.16845,-0.96525 0.87441,-0.56737 0.88472,0.33756 1.60859,0.18069 1.60859,-0.3486 0,-0.52927 1.46551,-0.74845 3.25671,-0.48707 2.2929,0.33459 3.03716,0.12202 2.51484,-0.71828 -0.54909,-0.88335 1.76954,-1.07712 8.92209,-0.74561 5.3152,0.24635 9.664,0.52081 9.664,0.60993 0,0.0891 2.95331,0.33705 6.56292,0.55097 3.60961,0.21393 7.10778,0.83114 7.77371,1.37161 2.65777,2.15699 34.75058,1.96849 40.07938,-0.23541 0.8551,-0.35366 3.89445,-0.77872 6.7541,-0.94456 2.85967,-0.16585 5.80584,-0.6742 6.54706,-1.12968 0.74123,-0.45547 1.62355,-0.55384 1.96073,-0.21861 0.33717,0.33525 1.12239,0.19346 1.74491,-0.31507 1.71769,-1.40316 22.19712,-5.53114 24.00971,-4.83956 0.8731,0.33312 1.31329,0.16459 0.97819,-0.37449 -0.3351,-0.5391 0.69013,-0.96284 2.27828,-0.94166 1.58816,0.0212 5.68609,-0.32411 9.10652,-0.76732 3.42044,-0.44322 7.85145,-0.7075 9.84671,-0.58728 1.99526,0.12022 5.15656,0.29689 7.02513,0.3926 1.86857,0.0958 2.85592,0.50675 2.19412,0.91343 -1.32244,0.81262 4.0308,2.29738 6.43837,1.78572 0.83186,-0.17679 1.29801,0.34865 1.09905,1.23883 -0.19003,0.85021 -0.0222,1.22436 0.373,0.83147 0.39517,-0.39292 2.58401,0.45652 4.86409,1.88762 2.28007,1.4311 3.77177,1.98443 3.31489,1.22965 -0.66722,-1.10228 -0.48782,-1.09587 0.9116,0.0327 0.95827,0.77273 1.47956,1.82765 1.15842,2.34427 -0.32113,0.51663 -0.0226,0.81189 0.66338,0.65616 0.68599,-0.15575 1.33629,0.67856 1.44511,1.85402 0.22201,2.39805 2.61928,6.1901 4.19893,6.64195 0.57008,0.16307 0.88194,1.2036 0.69303,2.31229 -0.21157,1.24171 0.087,1.75131 0.77737,1.32705 0.69193,-0.42518 1.12085,0.32043 1.12085,1.94845 0,1.45047 0.42937,2.63721 0.95413,2.63721 0.87202,0 2.28237,4.43099 2.62988,8.26256 0.0781,0.86018 0.49688,2.13509 0.93079,2.83315 0.4339,0.69806 0.96193,3.57966 1.17339,6.40356 0.21146,2.82391 0.59958,5.49086 0.86252,5.92658 0.26292,0.43571 0.81113,6.01928 1.21821,12.40792 0.57977,9.09859 0.43589,11.9888 -0.66402,13.3374 -1.18896,1.45779 -1.18225,1.58872 0.0437,0.85417 1.23037,-0.73717 1.33703,2.36854 0.70985,20.67091 -0.40593,11.84613 -0.72646,22.81373 -0.71227,24.37244 0.0142,1.55872 -0.34158,2.83403 -0.79058,2.83403 -0.44901,0 -0.84408,2.05131 -0.87794,4.55849 -0.0767,5.67717 -4.8445,21.15761 -7.58207,24.61791 -1.12289,1.41934 -2.04161,3.05592 -2.04161,3.63681 0,0.58092 -0.92338,1.34759 -2.05195,1.70373 -1.12855,0.35614 -1.9448,1.19896 -1.81387,1.87292 0.13095,0.67396 -0.34495,1.10946 -1.05754,0.96775 -0.71259,-0.14169 -1.29562,0.16776 -1.29562,0.68768 0,2.14939 -9.3292,4.41372 -18.81461,4.56659 -12.67757,0.20431 -40.17141,-1.28957 -42.25853,-2.29613 -2.24998,-1.0851 -46.62496,-0.48208 -61.23331,0.83209 -15.32041,1.37824 -38.15973,1.94677 -46.12404,1.14815 z M 807.01232,122.66556 c -0.93418,-0.60025 -1.06203,-1.00529 -0.3203,-1.01477 0.67894,-0.008 1.52271,0.44797 1.87504,1.01477 0.7953,1.27947 0.43649,1.27947 -1.55474,0 z"
         id="path80"
         sodipodi:nodetypes="sssssssssssssssssssssssssssssssssssssssssssssssssssssssssssssssssssssssssssssscss" />
      <path
         style="fill:#333333;fill-opacity:1"
         d="m 622.81384,291.33535 c -8.02076,-4.31947 -18.63945,-18.72558 -23.08453,-31.31822 -6.1003,-17.28175 -7.23688,-24.77261 -7.99778,-52.71082 -0.53642,-19.6961 -0.38294,-23.10238 1.46559,-32.5267 3.46038,-20.06886 9.48314,-27.36418 19.54455,-41.9733 5.57699,-8.15313 16.21916,-15.04894 27.91197,-18.08614 8.81074,-2.28859 23.84734,-2.50543 35.23614,-0.50814 21.20154,3.71817 38.05735,3.03235 60.57377,-2.46458 6.36557,-1.55402 14.01557,-3.11899 17,-3.47771 2.98442,-0.35872 6.55123,-0.83465 7.92623,-1.05762 14.726,-2.38799 21.20092,-2.58116 29.73923,-0.88723 16.36024,3.24574 26.03557,9.53475 33.77684,21.95512 6.43651,10.32695 10.84158,24.58749 12.9819,42.0263 1.3819,11.25939 2.52751,39.48146 2.04993,50.5 -0.94334,21.76433 -5.47466,44.18919 -11.20732,55.46333 -1.9679,3.87017 -3.88376,7.26167 -4.25747,7.53667 -0.37371,0.275 -1.70093,1.9625 -2.94938,3.75 -5.61195,6.2632 -14.6971,9.11784 -21.13373,10.99442 -4.55432,1.31238 -28.44257,1.02385 -53,-0.64015 -13.11754,-0.88883 -25.3915,-1.07567 -37.5,-0.57081 -9.9,0.41277 -24.975,0.84943 -33.5,0.97035 -8.525,0.12093 -18.65,0.46478 -22.5,0.76412 -13.9508,1.66705 -21.09211,-2.29729 -31.07594,-7.73889 z m 66.07594,-7.57176 c 13.56314,-1.34427 62.33292,-1.38956 71,-0.0659 9.92348,1.5155 38.10202,1.34185 42.5902,-0.26247 4.83487,-1.72824 10.43399,-6.12294 12.91447,-10.13643 3.44762,-5.57837 7.93653,-20.51243 9.16548,-30.49245 1.57727,-12.80863 1.50833,-63.19002 -0.10057,-73.5 -4.18686,-26.82972 -12.1446,-41.19433 -25.8486,-46.65959 -4.92679,-1.96484 -7.52564,-2.28167 -18.72098,-2.28232 -12.88184,-7.5e-4 -19.78024,0.98033 -39,5.5465 -23.10117,5.48831 -42.27133,6.38889 -64.30396,3.02089 -25.51279,-3.9 -39.52082,-0.70158 -52.80813,12.05754 -13.8314,13.2816 -19.74742,34.24094 -18.85987,66.81698 0.90307,33.14592 7.81008,56.37809 20.3235,68.3595 1.64256,1.57272 5.61042,4.1378 8.81747,5.70017 5.79095,2.82118 5.96489,2.84085 25.33099,2.86471 10.725,0.0132 24,-0.42198 29.5,-0.9671 z m 91.25908,-79.38021 c -6.12046,-2.18442 -8.83137,-4.48625 -10.96549,-9.3108 -2.44333,-5.52353 -2.05716,-13.06348 0.87532,-17.09076 2.74259,-3.76651 9.90459,-7.17551 15.0751,-7.17551 5.80451,0 10.13871,1.96346 13.97229,6.32966 8.15185,9.28445 3.44757,23.46542 -9.01163,27.1654 -5.95592,1.76872 -5.23625,1.76279 -9.94559,0.082 z m -140.75857,-0.70052 c -3.30326,-1.31719 -6.83002,-4.68328 -8.72525,-8.32775 -2.26874,-4.36271 -1.90151,-12.79943 0.74339,-17.07898 6.38148,-10.32545 24.59947,-10.01918 29.96789,0.5038 3.50332,6.86708 2.40197,14.87435 -2.80016,20.35829 -4.84521,5.10768 -12.95585,7.02888 -19.18587,4.54464 z"
         id="path68"
         sodipodi:nodetypes="cssccsssssssssssccsssccsssssssssssssssssssssssssssssss" />
      <path
         style="fill:#333333;fill-opacity:1"
         d="m 691.09002,245.08257 c -2.4375,-2.69341 -1.70657,-7.22566 1.41997,-8.80473 1.89235,-0.95574 12.41771,7.32203 24.27599,7.37334 12.29018,0.0532 25.91938,-8.08488 27.47401,-7.07399 2.90616,1.88972 1.08629,5.74762 -0.0645,8.24264 0,0 -3.46926,10.14305 -27.27905,10.14305 -22.88229,0 -24.21271,-8.09718 -25.82642,-9.88031 z"
         id="path1404" />
    </g>
  </g>
</svg>
